<svg xmlns="http://www.w3.org/2000/svg" viewBox="0 0 64 64">
  <rect width="64" height="64" rx="12" fill="#0a0b0d"/>
  <g transform="translate(8,10) scale(0.032)">
    <path d="M 585.500 78.512 C 566.800 86.830, 527.875 104.354, 499 117.454 C 470.125 130.554, 438.175 144.977, 428 149.506 C 417.825 154.034, 395.100 164.378, 377.500 172.491 C 343.755 188.046, 307.058 204.632, 298.251 208.309 L 293.003 210.500 292.921 256 C 291.957 791.880, 291.976 803.918, 293.772 804.853 C 294.722 805.347, 305.400 808.779, 317.500 812.480 C 329.600 816.181, 341.300 819.797, 343.500 820.518 C 345.700 821.238, 360.100 825.728, 375.500 830.496 C 390.900 835.264, 411.825 841.785, 422 844.987 C 458.807 856.570, 470.371 860.169, 523.500 876.577 C 553.200 885.750, 582.450 894.816, 588.500 896.725 C 605.603 902.122, 619.283 906.051, 619.659 905.674 C 619.848 905.485, 619.889 715.894, 619.751 484.359 L 619.500 63.388 585.500 78.512 M 649 137.982 L 649 153.964 672.750 154.232 L 696.500 154.500 696.751 490.750 L 697.003 827 715.001 827 L 733 827 733 474.500 L 733 122 691 122 L 649 122 649 137.982 M 774 482.521 L 774 835.043 771.750 835.988 C 770.513 836.508, 760.500 839.238, 749.500 842.055 C 728.990 847.308, 687.038 858.799, 679 861.365 C 675.329 862.538, 674.996 862.820, 677.190 862.901 C 680.078 863.007, 716.057 859.401, 751 855.503 C 800.255 850.009, 846.544 844.726, 878.500 840.950 C 897.200 838.741, 929.375 834.942, 950 832.508 C 1038.661 822.045, 1181.837 804.338, 1229 798.002 C 1236.975 796.931, 1256.325 794.449, 1272 792.487 C 1287.675 790.525, 1301.063 788.727, 1301.750 788.491 C 1303.347 787.944, 1303.614 222.497, 1302.017 221.510 C 1301.476 221.176, 1293.489 219.577, 1284.267 217.956 C 1275.045 216.336, 1248.150 211.600, 1224.500 207.433 C 1200.850 203.266, 1168.675 197.660, 1153 194.976 C 1137.325 192.292, 1111.675 187.797, 1096 184.987 C 1028.555 172.896, 1006.529 168.995, 977 163.910 C 967.375 162.253, 946.900 158.690, 931.500 155.993 C 886.617 148.132, 778.122 130, 775.970 130 C 774.014 130, 774 132.463, 774 482.521 M 531 160.220 C 513.675 167.877, 495.675 175.841, 491 177.916 C 486.325 179.992, 471.925 186.307, 459 191.949 C 446.075 197.592, 426.275 206.270, 415 211.234 C 395.665 219.746, 359.603 235.409, 343 242.505 L 335.500 245.711 335.248 501.762 L 334.996 757.813 346.248 761.304 C 352.437 763.224, 367.175 767.731, 379 771.319 C 390.825 774.908, 417.825 783.101, 439 789.527 C 460.175 795.953, 483.575 803.005, 491 805.198 C 498.425 807.391, 517.119 812.968, 532.543 817.592 C 547.967 822.217, 561.354 826, 562.293 826 C 563.894 826, 564 817.207, 564 684.032 L 564 542.063 575.722 541.782 C 587.096 541.508, 587.482 541.426, 588.708 539 C 589.664 537.108, 589.974 526.409, 589.985 494.973 C 589.998 458.989, 589.792 453.148, 588.443 451.223 C 586.989 449.146, 586.135 449, 575.443 449 L 564 449 564 298.059 C 564 215.041, 563.663 146.933, 563.250 146.707 C 562.837 146.481, 548.325 152.562, 531 160.220 M 352 161.168 C 296.812 169.006, 275.251 172.225, 272.849 172.987 C 271.391 173.449, 264.078 178.372, 256.597 183.928 L 242.997 194.028 243.248 493.763 L 243.500 793.498 257 797.196 C 264.425 799.231, 271.625 801.031, 273 801.197 L 275.500 801.500 276 502.095 L 276.500 202.689 286 198.430 C 291.225 196.087, 305.625 189.687, 318 184.207 C 339.418 174.723, 371.027 160.162, 371.917 159.371 C 373.079 158.336, 369.940 158.620, 352 161.168 M 811.735 169.669 C 810.883 171.133, 810.872 797.803, 811.723 798.329 C 812.764 798.972, 895.010 791.248, 1017 779.052 C 1106.004 770.153, 1270.996 753.988, 1272.750 753.995 C 1273.747 753.999, 1274 702.770, 1274 501.170 L 1274 248.341 1258.750 245.575 C 1240.258 242.222, 1175.187 231.007, 1107.500 219.507 C 1080 214.835, 1043.100 208.528, 1025.500 205.491 C 975.797 196.917, 903.613 184.593, 858 176.893 C 835.175 173.040, 815.537 169.652, 814.359 169.363 C 813.182 169.074, 812.001 169.212, 811.735 169.669 M 826.489 188.844 C 826.220 189.113, 826 322.458, 826 485.167 C 826 766.253, 826.087 780.999, 827.750 780.983 C 828.712 780.973, 833.550 780.542, 838.500 780.025 C 843.450 779.507, 864.825 777.473, 886 775.505 C 907.175 773.536, 949.025 769.484, 979 766.500 C 1008.975 763.516, 1045.425 759.934, 1060 758.541 C 1074.575 757.148, 1109.193 753.759, 1136.929 751.010 C 1164.665 748.261, 1197.515 745.115, 1209.929 744.020 C 1222.343 742.924, 1238.463 741.494, 1245.750 740.842 L 1259 739.656 1259 500.347 L 1259 261.038 1256.750 260.539 C 1255.513 260.264, 1241 257.780, 1224.500 255.019 C 1195.048 250.089, 1148.405 242.171, 1066 228.111 C 967.105 211.237, 899.141 199.782, 881 196.930 C 870.275 195.244, 853.733 192.625, 844.239 191.109 C 834.746 189.594, 826.758 188.575, 826.489 188.844 M 847 335.907 L 847 457.813 856.250 458.397 C 865.109 458.956, 895.099 459.901, 970 461.980 C 988.975 462.506, 1011.138 463.219, 1019.250 463.564 L 1034 464.191 1034 354.614 L 1034 245.038 1031.750 244.533 C 1029.368 243.997, 961.400 232.545, 891.781 220.949 C 868.836 217.127, 849.374 214, 848.531 214 C 847.165 214, 847 227.101, 847 335.907 M 1066 357.404 L 1066 464.808 1076.250 465.406 C 1081.888 465.736, 1116.650 466.900, 1153.500 467.994 C 1190.350 469.088, 1224.840 470.141, 1230.145 470.334 L 1239.789 470.686 1240.384 467.093 C 1241.328 461.383, 1241.094 279.176, 1240.142 278.588 C 1238.821 277.771, 1070.706 249.964, 1067.250 249.991 C 1066.258 249.998, 1066 272.152, 1066 357.404 M 553.905 458.611 C 552.945 459.765, 552.394 463.707, 552.164 471.050 L 551.828 481.799 547.664 482.384 C 545.374 482.706, 532.317 484.123, 518.650 485.533 C 504.982 486.943, 492.134 488.763, 490.098 489.577 C 486.026 491.207, 483 495.389, 483 499.389 C 483 500.807, 484.255 503.373, 485.788 505.089 L 488.576 508.209 520.288 508.755 L 552 509.300 552 519.959 C 552 534.527, 551.893 534.414, 565.088 533.762 C 577.422 533.152, 578.680 532.732, 579.512 528.946 C 580.454 524.654, 580.623 464.854, 579.699 462.312 C 578.687 459.525, 574.737 458.333, 563.905 457.546 C 556.562 457.012, 555.106 457.167, 553.905 458.611 M 847.750 495.566 C 846.435 496.911, 846.830 757, 848.147 757 C 848.778 757, 861.715 755.884, 876.897 754.521 C 923.574 750.328, 992.450 744.219, 1013.750 742.382 L 1034 740.635 1034 619.964 L 1034 499.293 1011.750 498.629 C 999.513 498.264, 967.900 497.536, 941.500 497.013 C 915.100 496.490, 883.375 495.778, 871 495.430 C 858.625 495.083, 848.163 495.144, 847.750 495.566 M 1066 618.500 L 1066 737 1068.750 736.988 C 1070.263 736.981, 1083.200 735.861, 1097.500 734.498 C 1122.042 732.160, 1139.660 730.580, 1210 724.412 C 1226.225 722.989, 1239.847 721.494, 1240.272 721.091 C 1241.165 720.241, 1240.800 504.466, 1239.904 503.570 C 1239.255 502.922, 1112.602 500.038, 1083.750 500.014 L 1066 500 1066 618.500 M 1242 817.440 C 1229.625 819.765, 1208.703 823.597, 1195.507 825.956 C 1172.159 830.129, 1164.929 831.792, 1169.500 831.937 C 1170.601 831.971, 1191.076 834.260, 1215 837.023 C 1238.925 839.786, 1276.275 844.064, 1298 846.531 C 1319.725 848.998, 1344.925 851.902, 1354 852.983 C 1369.087 854.781, 1391.138 857.210, 1445.330 863.041 C 1456.236 864.214, 1465.401 864.932, 1465.698 864.636 C 1465.994 864.340, 1464.945 863.803, 1463.368 863.444 C 1460.252 862.734, 1441.006 857.718, 1423.500 853.053 C 1417.450 851.441, 1406.200 848.464, 1398.500 846.438 C 1390.800 844.411, 1377.525 840.822, 1369 838.462 C 1360.475 836.102, 1338.650 830.285, 1320.500 825.534 C 1302.350 820.783, 1284.232 816.019, 1280.239 814.948 C 1270.582 812.357, 1268.230 812.511, 1242 817.440 M 233 818.136 C 228.875 819.211, 208.625 824.395, 188 829.658 C 137.661 842.502, 121.024 846.807, 91.500 854.628 C 77.750 858.271, 62 862.382, 56.500 863.765 C 45.221 866.600, 41.621 868.596, 49.500 867.645 C 52.250 867.314, 67.775 865.897, 84 864.497 C 100.225 863.098, 124.525 860.845, 138 859.491 C 151.475 858.138, 167.675 856.577, 174 856.024 C 180.325 855.470, 196.975 853.871, 211 852.470 C 225.025 851.069, 260.494 847.733, 289.821 845.057 C 319.148 842.381, 343.365 839.968, 343.638 839.695 C 344.200 839.134, 333.166 836.476, 295 827.981 C 280.425 824.737, 262.787 820.714, 255.804 819.041 C 248.822 817.368, 242.522 816.041, 241.804 816.091 C 241.087 816.141, 237.125 817.061, 233 818.136" fill="#ffffff" fill-rule="evenodd"/>
  </g>
</svg>